<svg width="8" height="8" viewBox="0 0 8 8" fill="none" xmlns="http://www.w3.org/2000/svg">
<path d="M4.57761 1.17L5.16428 2.34334C5.24428 2.50667 5.45761 2.66334 5.63761 2.69334L6.70095 2.87C7.38095 2.98334 7.54095 3.47667 7.05095 3.96334L6.22428 4.79C6.08428 4.93001 6.00761 5.20001 6.05095 5.39334L6.28761 6.41667C6.47428 7.22667 6.04428 7.54001 5.32761 7.11667L4.33095 6.52667C4.15095 6.42001 3.85428 6.42001 3.67095 6.52667L2.67428 7.11667C1.96095 7.54001 1.52761 7.22334 1.71428 6.41667L1.95095 5.39334C1.99428 5.20001 1.91761 4.93001 1.77761 4.79L0.950946 3.96334C0.46428 3.47667 0.620946 2.98334 1.30095 2.87L2.36428 2.69334C2.54095 2.66334 2.75428 2.50667 2.83428 2.34334L3.42095 1.17C3.74095 0.533338 4.26095 0.533338 4.57761 1.17Z" fill="#A7232A"/>
</svg>
