<svg width="17" height="17" viewBox="0 0 17 17" fill="none" xmlns="http://www.w3.org/2000/svg">
<path d="M11.3332 15.5C11.9775 15.5 12.4998 14.9777 12.4998 14.3333C12.4998 13.689 11.9775 13.1667 11.3332 13.1667C10.6888 13.1667 10.1665 13.689 10.1665 14.3333C10.1665 14.9777 10.6888 15.5 11.3332 15.5Z" fill="#251F73"/>
<path d="M6.00016 15.5C6.64449 15.5 7.16683 14.9777 7.16683 14.3333C7.16683 13.689 6.64449 13.1667 6.00016 13.1667C5.35583 13.1667 4.8335 13.689 4.8335 14.3333C4.8335 14.9777 5.35583 15.5 6.00016 15.5Z" fill="#251F73"/>
<path d="M3.72683 3.12666L3.5935 4.75999C3.56683 5.07333 3.8135 5.33333 4.12683 5.33333H14.3335C14.6135 5.33333 14.8468 5.12 14.8668 4.84C14.9535 3.66 14.0535 2.69999 12.8735 2.69999H4.68016C4.6135 2.40666 4.48016 2.12666 4.2735 1.89333C3.94016 1.53999 3.4735 1.33333 2.9935 1.33333H1.8335C1.56016 1.33333 1.3335 1.55999 1.3335 1.83333C1.3335 2.10666 1.56016 2.33333 1.8335 2.33333H2.9935C3.20016 2.33333 3.3935 2.41999 3.5335 2.56666C3.6735 2.71999 3.74016 2.91999 3.72683 3.12666Z" fill="#251F73"/>
<path d="M14.1732 6.33333H3.94654C3.66654 6.33333 3.43987 6.54666 3.41321 6.81999L3.17321 9.71999C3.07987 10.86 3.97321 11.8333 5.11321 11.8333H12.5265C13.5265 11.8333 14.4065 11.0133 14.4799 10.0133L14.6999 6.9C14.7265 6.59333 14.4865 6.33333 14.1732 6.33333Z" fill="#251F73"/>
</svg>
