<svg width="81" height="28" viewBox="0 0 81 28" fill="none" xmlns="http://www.w3.org/2000/svg">
<path d="M6.9 21.175C5.61667 21.175 4.46667 20.9667 3.45 20.55C2.43333 20.1333 1.61667 19.5167 1 18.7C0.4 17.8833 0.0833334 16.9 0.0500001 15.75H4.6C4.66667 16.4 4.89167 16.9 5.275 17.25C5.65833 17.5833 6.15833 17.75 6.775 17.75C7.40833 17.75 7.90833 17.6083 8.275 17.325C8.64167 17.025 8.825 16.6167 8.825 16.1C8.825 15.6667 8.675 15.3083 8.375 15.025C8.09167 14.7417 7.73333 14.5083 7.3 14.325C6.88333 14.1417 6.28333 13.9333 5.5 13.7C4.36667 13.35 3.44167 13 2.725 12.65C2.00833 12.3 1.39167 11.7833 0.875 11.1C0.358333 10.4167 0.1 9.525 0.1 8.425C0.1 6.79167 0.691667 5.51667 1.875 4.6C3.05833 3.66667 4.6 3.2 6.5 3.2C8.43333 3.2 9.99167 3.66667 11.175 4.6C12.3583 5.51667 12.9917 6.8 13.075 8.45H8.45C8.41667 7.88333 8.20833 7.44167 7.825 7.125C7.44167 6.79167 6.95 6.625 6.35 6.625C5.83333 6.625 5.41667 6.76667 5.1 7.05C4.78333 7.31667 4.625 7.70833 4.625 8.225C4.625 8.79167 4.89167 9.23333 5.425 9.55C5.95833 9.86667 6.79167 10.2083 7.925 10.575C9.05833 10.9583 9.975 11.325 10.675 11.675C11.3917 12.025 12.0083 12.5333 12.525 13.2C13.0417 13.8667 13.3 14.725 13.3 15.775C13.3 16.775 13.0417 17.6833 12.525 18.5C12.025 19.3167 11.2917 19.9667 10.325 20.45C9.35833 20.9333 8.21667 21.175 6.9 21.175ZM24.5059 6.9C26.1059 6.9 27.3892 7.43333 28.3559 8.5C29.3225 9.55 29.8059 11 29.8059 12.85V21H25.5559V13.425C25.5559 12.4917 25.3142 11.7667 24.8309 11.25C24.3475 10.7333 23.6975 10.475 22.8809 10.475C22.0642 10.475 21.4142 10.7333 20.9309 11.25C20.4475 11.7667 20.2059 12.4917 20.2059 13.425V21H15.9309V2.5H20.2059V8.925C20.6392 8.30833 21.2309 7.81667 21.9809 7.45C22.7309 7.08333 23.5725 6.9 24.5059 6.9ZM39.1266 21.2C37.7599 21.2 36.5266 20.9083 35.4266 20.325C34.3432 19.7417 33.4849 18.9083 32.8516 17.825C32.2349 16.7417 31.9266 15.475 31.9266 14.025C31.9266 12.5917 32.2432 11.3333 32.8766 10.25C33.5099 9.15 34.3766 8.30833 35.4766 7.725C36.5766 7.14167 37.8099 6.85 39.1766 6.85C40.5432 6.85 41.7766 7.14167 42.8766 7.725C43.9766 8.30833 44.8432 9.15 45.4766 10.25C46.1099 11.3333 46.4266 12.5917 46.4266 14.025C46.4266 15.4583 46.1016 16.725 45.4516 17.825C44.8182 18.9083 43.9432 19.7417 42.8266 20.325C41.7266 20.9083 40.4932 21.2 39.1266 21.2ZM39.1266 17.5C39.9432 17.5 40.6349 17.2 41.2016 16.6C41.7849 16 42.0766 15.1417 42.0766 14.025C42.0766 12.9083 41.7932 12.05 41.2266 11.45C40.6766 10.85 39.9932 10.55 39.1766 10.55C38.3432 10.55 37.6516 10.85 37.1016 11.45C36.5516 12.0333 36.2766 12.8917 36.2766 14.025C36.2766 15.1417 36.5432 16 37.0766 16.6C37.6266 17.2 38.3099 17.5 39.1266 17.5ZM52.9695 9.025C53.3862 8.375 53.9612 7.85 54.6945 7.45C55.4279 7.05 56.2862 6.85 57.2695 6.85C58.4195 6.85 59.4612 7.14167 60.3945 7.725C61.3279 8.30833 62.0612 9.14167 62.5945 10.225C63.1445 11.3083 63.4195 12.5667 63.4195 14C63.4195 15.4333 63.1445 16.7 62.5945 17.8C62.0612 18.8833 61.3279 19.725 60.3945 20.325C59.4612 20.9083 58.4195 21.2 57.2695 21.2C56.3029 21.2 55.4445 21 54.6945 20.6C53.9612 20.2 53.3862 19.6833 52.9695 19.05V27.65H48.6945V7.05H52.9695V9.025ZM59.0695 14C59.0695 12.9333 58.7695 12.1 58.1695 11.5C57.5862 10.8833 56.8612 10.575 55.9945 10.575C55.1445 10.575 54.4195 10.8833 53.8195 11.5C53.2362 12.1167 52.9445 12.9583 52.9445 14.025C52.9445 15.0917 53.2362 15.9333 53.8195 16.55C54.4195 17.1667 55.1445 17.475 55.9945 17.475C56.8445 17.475 57.5695 17.1667 58.1695 16.55C58.7695 15.9167 59.0695 15.0667 59.0695 14ZM67.8123 5.6C67.0623 5.6 66.4456 5.38333 65.9623 4.95C65.4956 4.5 65.2623 3.95 65.2623 3.3C65.2623 2.63333 65.4956 2.08333 65.9623 1.65C66.4456 1.2 67.0623 0.974999 67.8123 0.974999C68.5456 0.974999 69.1456 1.2 69.6123 1.65C70.0956 2.08333 70.3373 2.63333 70.3373 3.3C70.3373 3.95 70.0956 4.5 69.6123 4.95C69.1456 5.38333 68.5456 5.6 67.8123 5.6ZM69.9373 7.05V21H65.6623V7.05H69.9373ZM80.8104 17.375V21H78.6354C77.0854 21 75.877 20.625 75.0104 19.875C74.1437 19.1083 73.7104 17.8667 73.7104 16.15V10.6H72.0104V7.05H73.7104V3.65H77.9854V7.05H80.7854V10.6H77.9854V16.2C77.9854 16.6167 78.0854 16.9167 78.2854 17.1C78.4854 17.2833 78.8187 17.375 79.2854 17.375H80.8104Z" fill="#251F73"/>
</svg>
