<svg width="175" height="21" viewBox="0 0 175 21" fill="none" xmlns="http://www.w3.org/2000/svg">
<path d="M9.15327 2.84001L10.3266 5.18668C10.4866 5.51334 10.9133 5.82668 11.2733 5.88668L13.3999 6.24001C14.7599 6.46668 15.0799 7.45334 14.0999 8.42668L12.4466 10.08C12.1666 10.36 12.0133 10.9 12.0999 11.2867L12.5733 13.3333C12.9466 14.9533 12.0866 15.58 10.6533 14.7333L8.65994 13.5533C8.29994 13.34 7.70661 13.34 7.33994 13.5533L5.34661 14.7333C3.91994 15.58 3.05327 14.9467 3.42661 13.3333L3.89994 11.2867C3.98661 10.9 3.83327 10.36 3.55327 10.08L1.89994 8.42668C0.926606 7.45334 1.23994 6.46668 2.59994 6.24001L4.72661 5.88668C5.07994 5.82668 5.50661 5.51334 5.66661 5.18668L6.83994 2.84001C7.47994 1.56668 8.51994 1.56668 9.15327 2.84001Z" fill="#251F73"/>
<path d="M25.1533 2.84001L26.3266 5.18668C26.4866 5.51334 26.9133 5.82668 27.2733 5.88668L29.3999 6.24001C30.7599 6.46668 31.0799 7.45334 30.0999 8.42668L28.4466 10.08C28.1666 10.36 28.0133 10.9 28.0999 11.2867L28.5733 13.3333C28.9466 14.9533 28.0866 15.58 26.6533 14.7333L24.6599 13.5533C24.2999 13.34 23.7066 13.34 23.3399 13.5533L21.3466 14.7333C19.9199 15.58 19.0533 14.9467 19.4266 13.3333L19.8999 11.2867C19.9866 10.9 19.8333 10.36 19.5533 10.08L17.8999 8.42668C16.9266 7.45334 17.2399 6.46668 18.5999 6.24001L20.7266 5.88668C21.0799 5.82668 21.5066 5.51334 21.6666 5.18668L22.8399 2.84001C23.4799 1.56668 24.5199 1.56668 25.1533 2.84001Z" fill="#251F73"/>
<path d="M41.1533 2.84001L42.3266 5.18668C42.4866 5.51334 42.9133 5.82668 43.2733 5.88668L45.3999 6.24001C46.7599 6.46668 47.0799 7.45334 46.0999 8.42668L44.4466 10.08C44.1666 10.36 44.0133 10.9 44.0999 11.2867L44.5733 13.3333C44.9466 14.9533 44.0866 15.58 42.6533 14.7333L40.6599 13.5533C40.2999 13.34 39.7066 13.34 39.3399 13.5533L37.3466 14.7333C35.9199 15.58 35.0533 14.9467 35.4266 13.3333L35.8999 11.2867C35.9866 10.9 35.8333 10.36 35.5533 10.08L33.8999 8.42668C32.9266 7.45334 33.2399 6.46668 34.5999 6.24001L36.7266 5.88668C37.0799 5.82668 37.5066 5.51334 37.6666 5.18668L38.8399 2.84001C39.4799 1.56668 40.5199 1.56668 41.1533 2.84001Z" fill="#251F73"/>
<path d="M57.1533 2.84001L58.3266 5.18668C58.4866 5.51334 58.9133 5.82668 59.2733 5.88668L61.3999 6.24001C62.7599 6.46668 63.0799 7.45334 62.0999 8.42668L60.4466 10.08C60.1666 10.36 60.0133 10.9 60.0999 11.2867L60.5733 13.3333C60.9466 14.9533 60.0866 15.58 58.6533 14.7333L56.6599 13.5533C56.2999 13.34 55.7066 13.34 55.3399 13.5533L53.3466 14.7333C51.9199 15.58 51.0533 14.9467 51.4266 13.3333L51.8999 11.2867C51.9866 10.9 51.8333 10.36 51.5533 10.08L49.8999 8.42668C48.9266 7.45334 49.2399 6.46668 50.5999 6.24001L52.7266 5.88668C53.0799 5.82668 53.5066 5.51334 53.6666 5.18668L54.8399 2.84001C55.4799 1.56668 56.5199 1.56668 57.1533 2.84001Z" fill="#251F73"/>
<path d="M73.1533 2.84001L74.3266 5.18668C74.4866 5.51334 74.9133 5.82668 75.2733 5.88668L77.3999 6.24001C78.7599 6.46668 79.0799 7.45334 78.0999 8.42668L76.4466 10.08C76.1666 10.36 76.0133 10.9 76.0999 11.2867L76.5733 13.3333C76.9466 14.9533 76.0866 15.58 74.6533 14.7333L72.6599 13.5533C72.2999 13.34 71.7066 13.34 71.3399 13.5533L69.3466 14.7333C67.9199 15.58 67.0533 14.9467 67.4266 13.3333L67.8999 11.2867C67.9866 10.9 67.8333 10.36 67.5533 10.08L65.8999 8.42668C64.9266 7.45334 65.2399 6.46668 66.5999 6.24001L68.7266 5.88668C69.0799 5.82668 69.5066 5.51334 69.6666 5.18668L70.8399 2.84001C71.4799 1.56668 72.5199 1.56668 73.1533 2.84001Z" stroke="#292D32" stroke-width="1.5" stroke-linecap="round" stroke-linejoin="round"/>
<path d="M84.4096 11.8514V11.1448L88.0038 6.16816H89.12V11.0424H90.144V11.8514H89.12V13.5H88.1984V11.8514H84.4096ZM88.2394 7.14096L85.4848 11.0424H88.2394V7.14096ZM91.5254 13.5614C91.3479 13.5614 91.1978 13.5 91.0749 13.3771C90.952 13.2542 90.8906 13.1041 90.8906 12.9266C90.8906 12.7491 90.952 12.5989 91.0749 12.476C91.1978 12.3531 91.3479 12.2917 91.5254 12.2917C91.6961 12.2917 91.8395 12.3531 91.9555 12.476C92.0784 12.5989 92.1398 12.7491 92.1398 12.9266C92.1398 13.1041 92.0784 13.2542 91.9555 13.3771C91.8395 13.5 91.6961 13.5614 91.5254 13.5614ZM97.9455 6.90544H94.3513V9.24016C94.5083 9.02171 94.7404 8.84421 95.0476 8.70768C95.3548 8.56432 95.6859 8.49264 96.0409 8.49264C96.6075 8.49264 97.0683 8.61211 97.4233 8.85104C97.7783 9.08315 98.0309 9.38693 98.181 9.7624C98.3381 10.131 98.4166 10.5236 98.4166 10.94C98.4166 11.4315 98.3244 11.8718 98.1401 12.261C97.9558 12.6501 97.6725 12.9573 97.2902 13.1826C96.9147 13.4078 96.4471 13.5205 95.8873 13.5205C95.1705 13.5205 94.5902 13.3362 94.1465 12.9675C93.7027 12.5989 93.4331 12.1074 93.3375 11.493H94.2489C94.3376 11.8821 94.5254 12.1859 94.8121 12.4043C95.0988 12.6228 95.4606 12.732 95.8975 12.732C96.4368 12.732 96.843 12.5716 97.1161 12.2507C97.3891 11.923 97.5257 11.493 97.5257 10.9605C97.5257 10.428 97.3891 10.0184 97.1161 9.73168C96.843 9.43813 96.4402 9.29136 95.9078 9.29136C95.5459 9.29136 95.2285 9.38011 94.9554 9.5576C94.6892 9.72827 94.4946 9.96379 94.3718 10.2642H93.4911V6.08624H97.9455V6.90544ZM104.935 15.4046C104.279 14.7629 103.767 13.9471 103.399 12.9573C103.037 11.9674 102.856 10.899 102.856 9.75216C102.856 8.57797 103.047 7.48229 103.429 6.46512C103.818 5.44112 104.371 4.59803 105.088 3.93584H106.061V4.028C105.296 4.7448 104.72 5.60837 104.33 6.61872C103.948 7.62224 103.757 8.66672 103.757 9.75216C103.757 10.8103 103.938 11.8206 104.3 12.7832C104.668 13.7458 105.204 14.5889 105.907 15.3125V15.4046H104.935ZM107.014 7.96016C107.062 7.33211 107.305 6.84059 107.741 6.4856C108.178 6.13061 108.745 5.95312 109.441 5.95312C109.905 5.95312 110.305 6.03845 110.639 6.20912C110.981 6.37296 111.237 6.59824 111.407 6.88496C111.585 7.17168 111.674 7.49595 111.674 7.85776C111.674 8.28101 111.551 8.64624 111.305 8.95344C111.066 9.26064 110.752 9.45861 110.363 9.54736V9.59856C110.807 9.70779 111.158 9.92283 111.418 10.2437C111.677 10.5645 111.807 10.9844 111.807 11.5032C111.807 11.8923 111.718 12.2439 111.54 12.5579C111.363 12.8651 111.097 13.1075 110.742 13.285C110.387 13.4625 109.96 13.5512 109.462 13.5512C108.738 13.5512 108.144 13.3635 107.68 12.988C107.216 12.6057 106.956 12.0664 106.902 11.3701H107.803C107.851 11.7797 108.018 12.1142 108.305 12.3736C108.591 12.633 108.974 12.7627 109.452 12.7627C109.929 12.7627 110.291 12.6398 110.537 12.3941C110.79 12.1415 110.916 11.8172 110.916 11.4213C110.916 10.9093 110.745 10.5406 110.404 10.3154C110.063 10.0901 109.547 9.97744 108.858 9.97744H108.622V9.1992H108.868C109.496 9.19237 109.97 9.08997 110.291 8.892C110.612 8.6872 110.772 8.37317 110.772 7.94992C110.772 7.58811 110.653 7.29797 110.414 7.07952C110.182 6.86107 109.847 6.75184 109.411 6.75184C108.987 6.75184 108.646 6.86107 108.387 7.07952C108.127 7.29797 107.974 7.59152 107.926 7.96016H107.014ZM113.515 13.5614C113.338 13.5614 113.188 13.5 113.065 13.3771C112.942 13.2542 112.881 13.1041 112.881 12.9266C112.881 12.7491 112.942 12.5989 113.065 12.476C113.188 12.3531 113.338 12.2917 113.515 12.2917C113.686 12.2917 113.829 12.3531 113.946 12.476C114.068 12.5989 114.13 12.7491 114.13 12.9266C114.13 13.1041 114.068 13.2542 113.946 13.3771C113.829 13.5 113.686 13.5614 113.515 13.5614ZM119.936 6.90544H116.341V9.24016C116.498 9.02171 116.73 8.84421 117.038 8.70768C117.345 8.56432 117.676 8.49264 118.031 8.49264C118.597 8.49264 119.058 8.61211 119.413 8.85104C119.768 9.08315 120.021 9.38693 120.171 9.7624C120.328 10.131 120.407 10.5236 120.407 10.94C120.407 11.4315 120.314 11.8718 120.13 12.261C119.946 12.6501 119.662 12.9573 119.28 13.1826C118.905 13.4078 118.437 13.5205 117.877 13.5205C117.16 13.5205 116.58 13.3362 116.136 12.9675C115.693 12.5989 115.423 12.1074 115.328 11.493H116.239C116.328 11.8821 116.515 12.1859 116.802 12.4043C117.089 12.6228 117.451 12.732 117.888 12.732C118.427 12.732 118.833 12.5716 119.106 12.2507C119.379 11.923 119.516 11.493 119.516 10.9605C119.516 10.428 119.379 10.0184 119.106 9.73168C118.833 9.43813 118.43 9.29136 117.898 9.29136C117.536 9.29136 117.219 9.38011 116.945 9.5576C116.679 9.72827 116.485 9.96379 116.362 10.2642H115.481V6.08624H119.936V6.90544ZM124.932 13.5L122.73 11.0219V13.5H121.798V5.9224H122.73V10.3768L124.891 7.88848H126.191L123.55 10.684L126.202 13.5H124.932ZM133.557 13.5L131.857 10.5816H130.73V13.5H129.798V6.36272H132.102C132.642 6.36272 133.096 6.45488 133.464 6.6392C133.84 6.82352 134.12 7.07269 134.304 7.38672C134.488 7.70075 134.581 8.05915 134.581 8.46192C134.581 8.95344 134.437 9.38693 134.15 9.7624C133.871 10.1379 133.447 10.387 132.881 10.5099L134.673 13.5H133.557ZM130.73 9.83408H132.102C132.608 9.83408 132.987 9.7112 133.239 9.46544C133.492 9.21285 133.618 8.87835 133.618 8.46192C133.618 8.03867 133.492 7.71099 133.239 7.47888C132.993 7.24677 132.614 7.13072 132.102 7.13072H130.73V9.83408ZM141.148 10.4792C141.148 10.6567 141.138 10.8444 141.118 11.0424H136.633C136.667 11.5954 136.855 12.0289 137.196 12.3429C137.544 12.6501 137.964 12.8037 138.455 12.8037C138.858 12.8037 139.193 12.7115 139.459 12.5272C139.732 12.3361 139.923 12.0835 140.032 11.7694H141.036C140.886 12.3087 140.585 12.7491 140.135 13.0904C139.684 13.4249 139.124 13.5922 138.455 13.5922C137.923 13.5922 137.445 13.4727 137.022 13.2338C136.605 12.9948 136.278 12.6569 136.039 12.22C135.8 11.7763 135.68 11.2643 135.68 10.684C135.68 10.1037 135.796 9.59515 136.028 9.15824C136.261 8.72133 136.585 8.38683 137.001 8.15472C137.425 7.91579 137.909 7.79632 138.455 7.79632C138.988 7.79632 139.459 7.91237 139.868 8.14448C140.278 8.37659 140.592 8.69744 140.811 9.10704C141.036 9.50981 141.148 9.9672 141.148 10.4792ZM140.186 10.2846C140.186 9.92965 140.107 9.62587 139.95 9.37328C139.793 9.11387 139.578 8.91931 139.305 8.7896C139.039 8.65307 138.742 8.5848 138.414 8.5848C137.943 8.5848 137.541 8.73499 137.206 9.03536C136.878 9.33573 136.691 9.75216 136.643 10.2846H140.186ZM144.467 12.6398L146.208 7.88848H147.202L145 13.5H143.914L141.713 7.88848H142.716L144.467 12.6398ZM148.6 6.97712C148.422 6.97712 148.272 6.91568 148.149 6.7928C148.026 6.66992 147.965 6.51973 147.965 6.34224C147.965 6.16475 148.026 6.01456 148.149 5.89168C148.272 5.7688 148.422 5.70736 148.6 5.70736C148.77 5.70736 148.914 5.7688 149.03 5.89168C149.153 6.01456 149.214 6.16475 149.214 6.34224C149.214 6.51973 149.153 6.66992 149.03 6.7928C148.914 6.91568 148.77 6.97712 148.6 6.97712ZM149.05 7.88848V13.5H148.118V7.88848H149.05ZM155.758 10.4792C155.758 10.6567 155.748 10.8444 155.728 11.0424H151.243C151.277 11.5954 151.465 12.0289 151.806 12.3429C152.154 12.6501 152.574 12.8037 153.065 12.8037C153.468 12.8037 153.803 12.7115 154.069 12.5272C154.342 12.3361 154.533 12.0835 154.642 11.7694H155.646C155.496 12.3087 155.195 12.7491 154.745 13.0904C154.294 13.4249 153.734 13.5922 153.065 13.5922C152.533 13.5922 152.055 13.4727 151.632 13.2338C151.215 12.9948 150.888 12.6569 150.649 12.22C150.41 11.7763 150.29 11.2643 150.29 10.684C150.29 10.1037 150.406 9.59515 150.638 9.15824C150.871 8.72133 151.195 8.38683 151.611 8.15472C152.035 7.91579 152.519 7.79632 153.065 7.79632C153.598 7.79632 154.069 7.91237 154.478 8.14448C154.888 8.37659 155.202 8.69744 155.421 9.10704C155.646 9.50981 155.758 9.9672 155.758 10.4792ZM154.796 10.2846C154.796 9.92965 154.717 9.62587 154.56 9.37328C154.403 9.11387 154.188 8.91931 153.915 8.7896C153.649 8.65307 153.352 8.5848 153.024 8.5848C152.553 8.5848 152.151 8.73499 151.816 9.03536C151.488 9.33573 151.301 9.75216 151.253 10.2846H154.796ZM164.464 7.88848L162.713 13.5H161.75L160.398 9.0456L159.047 13.5H158.084L156.323 7.88848H157.275L158.565 12.5989L159.958 7.88848H160.91L162.272 12.6091L163.542 7.88848H164.464ZM167.375 13.5922C166.945 13.5922 166.559 13.5205 166.218 13.3771C165.877 13.2269 165.607 13.0221 165.409 12.7627C165.211 12.4965 165.102 12.1927 165.081 11.8514H166.044C166.071 12.1313 166.201 12.3599 166.433 12.5374C166.672 12.7149 166.983 12.8037 167.365 12.8037C167.72 12.8037 168 12.7252 168.204 12.5682C168.409 12.4111 168.512 12.2132 168.512 11.9742C168.512 11.7285 168.402 11.5476 168.184 11.4315C167.966 11.3086 167.628 11.1892 167.17 11.0731C166.754 10.9639 166.412 10.8547 166.146 10.7454C165.887 10.6294 165.662 10.4621 165.47 10.2437C165.286 10.0184 165.194 9.72485 165.194 9.36304C165.194 9.07632 165.279 8.81349 165.45 8.57456C165.621 8.33563 165.863 8.14789 166.177 8.01136C166.491 7.868 166.849 7.79632 167.252 7.79632C167.873 7.79632 168.375 7.95333 168.757 8.26736C169.14 8.58139 169.345 9.01147 169.372 9.5576H168.44C168.42 9.26405 168.3 9.02853 168.082 8.85104C167.87 8.67355 167.583 8.5848 167.221 8.5848C166.887 8.5848 166.621 8.65648 166.423 8.79984C166.225 8.9432 166.126 9.13093 166.126 9.36304C166.126 9.54736 166.184 9.70096 166.3 9.82384C166.423 9.93989 166.573 10.0355 166.75 10.1106C166.935 10.1788 167.187 10.2573 167.508 10.3461C167.911 10.4553 168.239 10.5645 168.491 10.6738C168.744 10.7762 168.959 10.9332 169.136 11.1448C169.321 11.3564 169.416 11.6329 169.423 11.9742C169.423 12.2814 169.338 12.5579 169.167 12.8037C168.996 13.0494 168.754 13.244 168.44 13.3874C168.133 13.5239 167.778 13.5922 167.375 13.5922ZM170.442 15.4046V15.3125C171.145 14.5889 171.677 13.7458 172.039 12.7832C172.408 11.8206 172.592 10.8103 172.592 9.75216C172.592 8.66672 172.397 7.62224 172.008 6.61872C171.626 5.60837 171.053 4.7448 170.288 4.028V3.93584H171.261C171.978 4.59803 172.527 5.44112 172.909 6.46512C173.298 7.48229 173.493 8.57797 173.493 9.75216C173.493 10.899 173.309 11.9674 172.94 12.9573C172.578 13.9471 172.07 14.7629 171.414 15.4046H170.442Z" fill="black"/>
</svg>
