<svg width="80" height="17" viewBox="0 0 80 17" fill="none" xmlns="http://www.w3.org/2000/svg">
<path d="M9.15327 2.84001L10.3266 5.18668C10.4866 5.51334 10.9133 5.82668 11.2733 5.88668L13.3999 6.24001C14.7599 6.46668 15.0799 7.45334 14.0999 8.42668L12.4466 10.08C12.1666 10.36 12.0133 10.9 12.0999 11.2867L12.5733 13.3333C12.9466 14.9533 12.0866 15.58 10.6533 14.7333L8.65994 13.5533C8.29994 13.34 7.70661 13.34 7.33994 13.5533L5.34661 14.7333C3.91994 15.58 3.05327 14.9467 3.42661 13.3333L3.89994 11.2867C3.98661 10.9 3.83327 10.36 3.55327 10.08L1.89994 8.42668C0.926606 7.45334 1.23994 6.46668 2.59994 6.24001L4.72661 5.88668C5.07994 5.82668 5.50661 5.51334 5.66661 5.18668L6.83994 2.84001C7.47994 1.56668 8.51994 1.56668 9.15327 2.84001Z" fill="#251F73"/>
<path d="M25.1533 2.84001L26.3266 5.18668C26.4866 5.51334 26.9133 5.82668 27.2733 5.88668L29.3999 6.24001C30.7599 6.46668 31.0799 7.45334 30.0999 8.42668L28.4466 10.08C28.1666 10.36 28.0133 10.9 28.0999 11.2867L28.5733 13.3333C28.9466 14.9533 28.0866 15.58 26.6533 14.7333L24.6599 13.5533C24.2999 13.34 23.7066 13.34 23.3399 13.5533L21.3466 14.7333C19.9199 15.58 19.0533 14.9467 19.4266 13.3333L19.8999 11.2867C19.9866 10.9 19.8333 10.36 19.5533 10.08L17.8999 8.42668C16.9266 7.45334 17.2399 6.46668 18.5999 6.24001L20.7266 5.88668C21.0799 5.82668 21.5066 5.51334 21.6666 5.18668L22.8399 2.84001C23.4799 1.56668 24.5199 1.56668 25.1533 2.84001Z" fill="#251F73"/>
<path d="M41.1533 2.84001L42.3266 5.18668C42.4866 5.51334 42.9133 5.82668 43.2733 5.88668L45.3999 6.24001C46.7599 6.46668 47.0799 7.45334 46.0999 8.42668L44.4466 10.08C44.1666 10.36 44.0133 10.9 44.0999 11.2867L44.5733 13.3333C44.9466 14.9533 44.0866 15.58 42.6533 14.7333L40.6599 13.5533C40.2999 13.34 39.7066 13.34 39.3399 13.5533L37.3466 14.7333C35.9199 15.58 35.0533 14.9467 35.4266 13.3333L35.8999 11.2867C35.9866 10.9 35.8333 10.36 35.5533 10.08L33.8999 8.42668C32.9266 7.45334 33.2399 6.46668 34.5999 6.24001L36.7266 5.88668C37.0799 5.82668 37.5066 5.51334 37.6666 5.18668L38.8399 2.84001C39.4799 1.56668 40.5199 1.56668 41.1533 2.84001Z" fill="#251F73"/>
<path d="M57.1533 2.84001L58.3266 5.18668C58.4866 5.51334 58.9133 5.82668 59.2733 5.88668L61.3999 6.24001C62.7599 6.46668 63.0799 7.45334 62.0999 8.42668L60.4466 10.08C60.1666 10.36 60.0133 10.9 60.0999 11.2867L60.5733 13.3333C60.9466 14.9533 60.0866 15.58 58.6533 14.7333L56.6599 13.5533C56.2999 13.34 55.7066 13.34 55.3399 13.5533L53.3466 14.7333C51.9199 15.58 51.0533 14.9467 51.4266 13.3333L51.8999 11.2867C51.9866 10.9 51.8333 10.36 51.5533 10.08L49.8999 8.42668C48.9266 7.45334 49.2399 6.46668 50.5999 6.24001L52.7266 5.88668C53.0799 5.82668 53.5066 5.51334 53.6666 5.18668L54.8399 2.84001C55.4799 1.56668 56.5199 1.56668 57.1533 2.84001Z" fill="#251F73"/>
<path d="M73.1533 2.84001L74.3266 5.18668C74.4866 5.51334 74.9133 5.82668 75.2733 5.88668L77.3999 6.24001C78.7599 6.46668 79.0799 7.45334 78.0999 8.42668L76.4466 10.08C76.1666 10.36 76.0133 10.9 76.0999 11.2867L76.5733 13.3333C76.9466 14.9533 76.0866 15.58 74.6533 14.7333L72.6599 13.5533C72.2999 13.34 71.7066 13.34 71.3399 13.5533L69.3466 14.7333C67.9199 15.58 67.0533 14.9467 67.4266 13.3333L67.8999 11.2867C67.9866 10.9 67.8333 10.36 67.5533 10.08L65.8999 8.42668C64.9266 7.45334 65.2399 6.46668 66.5999 6.24001L68.7266 5.88668C69.0799 5.82668 69.5066 5.51334 69.6666 5.18668L70.8399 2.84001C71.4799 1.56668 72.5199 1.56668 73.1533 2.84001Z" stroke="#292D32" stroke-width="1.5" stroke-linecap="round" stroke-linejoin="round"/>
</svg>
