<svg width="17" height="17" viewBox="0 0 17 17" fill="none" xmlns="http://www.w3.org/2000/svg">
<path d="M8.49967 1.83334C4.82634 1.83334 1.83301 4.82667 1.83301 8.5C1.83301 12.1733 4.82634 15.1667 8.49967 15.1667C12.173 15.1667 15.1663 12.1733 15.1663 8.5C15.1663 4.82667 12.173 1.83334 8.49967 1.83334ZM11.6863 6.96667L7.90634 10.7467C7.81301 10.84 7.68634 10.8933 7.55301 10.8933C7.41967 10.8933 7.29301 10.84 7.19967 10.7467L5.31301 8.86C5.11967 8.66667 5.11967 8.34667 5.31301 8.15334C5.50634 7.96 5.82634 7.96 6.01967 8.15334L7.55301 9.68667L10.9797 6.26C11.173 6.06667 11.493 6.06667 11.6863 6.26C11.8797 6.45334 11.8797 6.76667 11.6863 6.96667Z" fill="#FCFBFC"/>
</svg>
