<svg width="25" height="25" viewBox="0 0 25 25" fill="none" xmlns="http://www.w3.org/2000/svg">
<path d="M12.8457 0.564758C6.2337 0.564758 0.845703 5.95276 0.845703 12.5648C0.845703 19.1768 6.2337 24.5648 12.8457 24.5648C19.4577 24.5648 24.8457 19.1768 24.8457 12.5648C24.8457 5.95276 19.4577 0.564758 12.8457 0.564758ZM18.5817 9.80476L11.7777 16.6088C11.6097 16.7768 11.3817 16.8728 11.1417 16.8728C10.9017 16.8728 10.6737 16.7768 10.5057 16.6088L7.1097 13.2128C6.7617 12.8648 6.7617 12.2888 7.1097 11.9408C7.4577 11.5928 8.0337 11.5928 8.3817 11.9408L11.1417 14.7008L17.3097 8.53276C17.6577 8.18476 18.2337 8.18476 18.5817 8.53276C18.9297 8.88076 18.9297 9.44476 18.5817 9.80476Z" fill="#251F73"/>
</svg>
