<svg width="25" height="25" viewBox="0 0 25 25" fill="none" xmlns="http://www.w3.org/2000/svg">
<path d="M21.224 5.79476C19.614 5.63476 18.004 5.51476 16.384 5.42476V5.41476L16.164 4.11476C16.014 3.19476 15.794 1.81476 13.454 1.81476H10.834C8.50397 1.81476 8.28397 3.13476 8.12397 4.10476L7.91397 5.38476C6.98397 5.44476 6.05397 5.50476 5.12397 5.59476L3.08397 5.79476C2.66397 5.83476 2.36397 6.20476 2.40397 6.61476C2.44397 7.02476 2.80397 7.32476 3.22397 7.28476L5.26397 7.08476C10.504 6.56476 15.784 6.76476 21.084 7.29476C21.114 7.29476 21.134 7.29476 21.164 7.29476C21.544 7.29476 21.874 7.00476 21.914 6.61476C21.944 6.20476 21.644 5.83476 21.224 5.79476Z" fill="#EB0B18"/>
<path d="M19.384 8.70476C19.144 8.45476 18.814 8.31476 18.474 8.31476H5.83405C5.49405 8.31476 5.15405 8.45476 4.92405 8.70476C4.69405 8.95476 4.56405 9.29476 4.58405 9.64476L5.20405 19.9048C5.31405 21.4248 5.45405 23.3248 8.94405 23.3248H15.364C18.854 23.3248 18.994 21.4348 19.104 19.9048L19.724 9.65476C19.744 9.29476 19.614 8.95476 19.384 8.70476ZM13.814 18.3148H10.484C10.074 18.3148 9.73405 17.9748 9.73405 17.5648C9.73405 17.1548 10.074 16.8148 10.484 16.8148H13.814C14.224 16.8148 14.564 17.1548 14.564 17.5648C14.564 17.9748 14.224 18.3148 13.814 18.3148ZM14.654 14.3148H9.65405C9.24405 14.3148 8.90405 13.9748 8.90405 13.5648C8.90405 13.1548 9.24405 12.8148 9.65405 12.8148H14.654C15.064 12.8148 15.404 13.1548 15.404 13.5648C15.404 13.9748 15.064 14.3148 14.654 14.3148Z" fill="#EB0B18"/>
</svg>
